<?xml version="1.0" standalone="no"?>
<!DOCTYPE svg PUBLIC "-//W3C//DTD SVG 20010904//EN"
 "http://www.w3.org/TR/2001/REC-SVG-20010904/DTD/svg10.dtd">
<svg version="1.0" xmlns="http://www.w3.org/2000/svg"
 width="866.000000pt" height="650.000000pt" viewBox="0 0 866.000000 650.000000"
 preserveAspectRatio="xMidYMid meet">

<g transform="translate(0.000000,650.000000) scale(0.100000,-0.100000)"
fill="#000000" stroke="none">
<path d="M1275 4023 c-48 -4 -151 -20 -217 -35 l-48 -10 0 -55 c0 -47 2 -54
16 -49 9 4 53 13 98 20 191 33 297 41 571 41 249 0 319 -5 505 -30 l35 -5 -40
15 c-97 38 -318 83 -510 105 -84 9 -318 11 -410 3z"/>
<path d="M2622 3625 c-110 -31 -192 -100 -240 -204 -22 -46 -27 -71 -27 -141
0 -76 3 -92 33 -152 70 -143 221 -219 402 -202 126 11 132 15 161 92 l25 68
-67 -34 c-86 -44 -178 -53 -265 -26 -73 23 -153 97 -172 160 -71 241 152 444
383 349 33 -14 61 -25 61 -25 1 0 1 21 0 47 -1 43 -4 49 -31 62 -43 21 -197
24 -263 6z"/>
<path d="M6290 3611 c5 -11 10 -67 10 -125 l0 -105 -35 15 c-98 41 -219 -6
-266 -102 -52 -109 -18 -267 72 -330 51 -35 136 -44 192 -21 20 9 37 12 37 6
0 -5 29 -9 64 -9 l65 0 -15 35 c-11 27 -14 96 -14 345 l0 310 -60 0 c-57 0
-60 -1 -50 -19z m-39 -297 c38 -19 59 -68 59 -136 0 -110 -37 -168 -108 -168
-105 0 -165 132 -112 248 29 65 98 89 161 56z"/>
<path d="M2025 3550 c-125 -63 -297 -133 -352 -145 -41 -8 -196 43 -373 124
-107 49 -130 56 -130 42 0 -20 58 -368 66 -393 3 -9 14 -28 25 -43 20 -25 22
-25 36 -8 13 16 13 16 3 -5 -10 -21 -5 -30 52 -90 34 -37 68 -66 74 -66 7 1
10 -4 8 -10 -5 -14 54 -61 76 -61 8 0 15 -6 15 -14 0 -8 23 -30 50 -48 l50
-35 3 271 2 271 25 0 25 0 0 -271 c0 -182 3 -268 10 -264 7 4 10 101 10 272
-1 146 2 269 7 273 4 3 40 19 78 35 84 34 179 84 258 138 32 21 61 37 63 34 3
-2 0 -42 -6 -88 -15 -124 -12 -125 20 -9 41 148 41 150 33 150 -5 0 -62 -27
-128 -60z"/>
<path d="M6690 3525 l0 -55 55 0 55 0 0 55 0 55 -55 0 -55 0 0 -55z"/>
<path d="M3285 3401 c-56 -14 -115 -51 -145 -92 -164 -226 136 -501 346 -316
58 51 84 105 84 177 0 69 -25 124 -77 171 -55 50 -144 75 -208 60z m105 -93
c54 -28 80 -74 80 -143 0 -165 -201 -214 -264 -64 -35 85 0 181 79 215 42 18
54 17 105 -8z"/>
<path d="M5075 3401 c-94 -23 -155 -81 -182 -170 -29 -102 17 -211 113 -267
60 -35 157 -39 217 -10 214 105 163 420 -73 449 -25 3 -58 2 -75 -2z m105 -93
c131 -68 97 -283 -47 -295 -36 -3 -56 1 -81 17 -35 22 -71 88 -72 131 0 65 40
130 95 155 41 18 54 17 105 -8z"/>
<path d="M5706 3398 c-11 -6 -51 -10 -89 -9 l-69 2 16 -23 c13 -19 16 -54 16
-210 0 -114 -4 -189 -10 -193 -26 -16 -3 -25 66 -25 l76 0 -17 26 c-14 22 -16
48 -13 170 3 133 5 145 26 166 16 16 33 22 62 22 l40 -1 0 43 0 44 -42 0 c-24
0 -52 -6 -62 -12z"/>
<path d="M7138 3395 c-48 -16 -48 -16 -48 -60 0 -25 1 -45 3 -45 1 0 20 9 42
20 71 36 169 21 182 -28 9 -35 -12 -48 -106 -66 -46 -8 -95 -23 -108 -31 -29
-20 -53 -72 -53 -117 0 -100 130 -168 235 -124 19 8 35 11 35 5 0 -5 27 -9 60
-9 55 0 60 2 51 18 -5 9 -11 92 -13 184 -3 149 -6 170 -24 195 -44 60 -164 87
-256 58z m192 -263 c0 -42 -17 -93 -37 -107 -50 -37 -136 -20 -149 30 -8 31
18 73 49 80 135 31 137 31 137 -3z"/>
<path d="M3910 3388 c-19 -5 -64 -9 -100 -8 l-65 1 3 -205 c2 -136 0 -211 -8
-225 -10 -20 -8 -21 60 -21 67 0 70 1 60 19 -15 28 -13 312 3 332 44 57 151
50 183 -12 20 -41 20 -286 -1 -316 -15 -21 -14 -21 60 -25 41 -2 75 -1 75 2 0
3 -7 14 -15 24 -12 15 -15 53 -15 163 0 160 -8 193 -59 236 -51 43 -111 55
-181 35z"/>
<path d="M4475 3389 c-45 -12 -115 -77 -136 -123 -34 -76 -21 -185 31 -248 57
-69 179 -102 291 -79 55 11 57 13 63 49 10 63 9 64 -31 43 -140 -70 -276 -1
-275 141 1 64 30 110 86 137 55 27 102 26 159 -3 l47 -23 0 49 c0 43 -3 50
-26 58 -31 12 -167 12 -209 -1z"/>
<path d="M6688 3378 c15 -15 17 -390 2 -419 -10 -18 -7 -19 62 -19 56 0 69 3
60 12 -9 9 -12 73 -12 225 l0 213 -62 0 c-48 0 -59 -3 -50 -12z"/>
<path d="M1044 3267 c21 -114 126 -332 225 -464 98 -132 266 -287 358 -331 32
-15 34 -15 87 22 110 75 316 310 401 455 4 7 -26 -20 -66 -61 -84 -85 -261
-219 -343 -261 l-55 -28 -48 27 c-219 126 -425 361 -524 595 -37 88 -44 97
-35 46z"/>
<path d="M4570 2558 c1 -50 19 -95 33 -81 4 3 7 1 7 -5 0 -20 64 -14 88 8 28
26 33 130 6 130 -13 0 -15 -10 -12 -59 1 -33 1 -59 -2 -59 -19 1 -30 -3 -26
-11 11 -17 -29 -6 -46 13 -12 13 -18 35 -18 68 0 36 -4 48 -15 48 -11 0 -15
-12 -15 -52z"/>
<path d="M4942 2538 c2 -46 7 -73 16 -76 8 -2 12 10 12 42 0 25 4 46 9 46 5 0
27 -20 49 -45 22 -25 45 -45 51 -45 7 0 11 26 11 75 0 60 -3 75 -15 75 -12 0
-15 -13 -15 -57 0 -57 0 -57 -17 -33 -27 42 -76 90 -90 90 -11 0 -13 -17 -11
-72z"/>
<path d="M5320 2534 c0 -56 3 -75 13 -72 8 3 13 30 15 76 2 60 0 72 -13 72
-12 0 -15 -14 -15 -76z"/>
<path d="M5575 2583 c8 -16 23 -49 34 -75 11 -27 24 -48 28 -48 8 0 20 24 59
118 13 28 12 32 -1 32 -9 0 -25 -20 -37 -47 l-21 -48 -21 47 c-13 29 -28 48
-38 48 -15 0 -15 -3 -3 -27z"/>
<path d="M5920 2535 l0 -75 55 0 c33 0 55 4 55 11 0 6 -15 9 -37 7 -35 -3 -38
-1 -38 22 0 21 5 26 33 28 17 2 32 8 32 13 0 6 -15 9 -32 7 -28 -2 -34 1 -36
20 -3 19 1 22 32 22 20 0 36 5 36 10 0 6 -22 10 -50 10 l-50 0 0 -75z"/>
<path d="M6250 2535 c0 -62 3 -75 16 -75 12 0 15 8 12 33 -2 24 0 34 11 34 7
0 22 -15 33 -34 11 -18 26 -33 34 -33 18 0 18 10 -2 39 -14 20 -15 26 -3 48
12 23 11 27 -10 44 -13 10 -38 19 -57 19 l-34 0 0 -75z m64 49 c16 -6 23 -33
9 -35 -5 0 -15 -2 -25 -4 -10 -2 -18 5 -21 21 -4 25 6 30 37 18z"/>
<path d="M6598 2599 c-30 -17 -21 -47 22 -74 22 -14 40 -28 40 -30 0 -13 -46
-22 -58 -12 -7 5 -16 7 -19 3 -11 -10 18 -26 48 -26 31 0 64 33 55 55 -3 9
-22 23 -42 31 -25 11 -34 20 -30 30 3 9 6 17 6 20 0 2 12 -1 26 -6 34 -13 39
-13 24 5 -14 17 -47 19 -72 4z"/>
<path d="M6909 2608 c0 -1 -1 -34 -2 -73 -1 -56 1 -70 13 -70 20 0 22 136 3
143 -7 2 -13 2 -14 0z"/>
<path d="M7155 2601 c-3 -5 7 -11 22 -13 27 -3 28 -5 31 -66 4 -84 26 -79 30
6 3 58 4 62 27 62 14 0 25 5 25 10 0 13 -127 13 -135 1z"/>
<path d="M7510 2590 c6 -11 15 -18 19 -16 8 6 9 4 17 -66 4 -32 11 -48 20 -48
12 0 19 33 17 87 -1 7 3 11 7 8 7 -4 40 37 40 50 0 15 -30 2 -45 -21 l-16 -25
-24 25 c-30 32 -51 35 -35 6z"/>
</g>
</svg>
